<svg>
    <symbol id="home" viewBox="0 0 283 244" xmlns="http://www.w3.org/2000/svg">
        <path d="M137.748 63.127L47.1704 145.614V234.642C47.1704 236.947 47.9986 239.158 49.4727 240.788C50.9468 242.418 52.9462 243.333 55.0309 243.333L110.084 243.176C112.162 243.164 114.151 242.244 115.617 240.615C117.082 238.986 117.905 236.782 117.905 234.484V182.493C117.905 180.188 118.733 177.977 120.207 176.347C121.682 174.717 123.681 173.802 125.766 173.802H157.208C159.292 173.802 161.292 174.717 162.766 176.347C164.24 177.977 165.068 180.188 165.068 182.493V234.446C165.065 235.59 165.266 236.723 165.659 237.781C166.053 238.838 166.632 239.8 167.362 240.61C168.092 241.42 168.96 242.062 169.915 242.501C170.87 242.939 171.894 243.165 172.929 243.165L227.962 243.333C230.047 243.333 232.046 242.418 233.52 240.788C234.994 239.158 235.823 236.947 235.823 234.642V145.555L145.265 63.127C144.2 62.1782 142.874 61.6608 141.506 61.6608C140.139 61.6608 138.813 62.1782 137.748 63.127ZM280.824 119.192L239.753 81.7593V6.51858C239.753 4.78975 239.132 3.13172 238.026 1.90925C236.92 0.686779 235.421 0 233.857 0H206.346C204.782 0 203.283 0.686779 202.177 1.90925C201.071 3.13172 200.45 4.78975 200.45 6.51858V45.9614L156.466 5.94821C152.245 2.10756 146.948 0.00767751 141.482 0.00767751C136.015 0.00767751 130.719 2.10756 126.498 5.94821L2.13953 119.192C1.54256 119.738 1.04866 120.408 0.686055 121.165C0.323449 121.922 0.0992426 122.75 0.026245 123.602C-0.0467526 124.455 0.0328896 125.315 0.260621 126.134C0.488352 126.952 0.85971 127.713 1.35347 128.373L13.8812 145.212C14.3736 145.874 14.9793 146.423 15.6635 146.825C16.3478 147.228 17.0972 147.478 17.8688 147.56C18.6405 147.643 19.4193 147.556 20.1605 147.305C20.9018 147.054 21.591 146.644 22.1887 146.098L137.748 40.8552C138.813 39.9064 140.139 39.3889 141.506 39.3889C142.874 39.3889 144.2 39.9064 145.265 40.8552L260.829 146.098C261.425 146.644 262.114 147.054 262.854 147.306C263.594 147.558 264.372 147.646 265.143 147.565C265.914 147.485 266.663 147.237 267.347 146.836C268.032 146.435 268.638 145.889 269.131 145.229L281.659 128.389C282.152 127.725 282.522 126.961 282.747 126.139C282.972 125.316 283.048 124.453 282.971 123.599C282.893 122.744 282.663 121.915 282.295 121.159C281.927 120.402 281.427 119.734 280.824 119.192Z"/>
    </symbol>
    <symbol id="area" viewBox="0 0 283 244" xmlns="http://www.w3.org/2000/svg">
        <path d="M283 182.833C265.3 182.833 263.253 167.625 235.939 167.625C208.504 167.625 206.359 182.833 188.719 182.833C171.224 182.833 168.85 167.625 141.5 167.625C114.437 167.625 111.673 182.833 94.4386 182.833C76.6576 182.833 74.7284 167.625 47.2193 167.625C19.7108 167.625 17.7488 182.833 0 182.833V144.812C0 132.218 13.5815 122 30.3214 122H40.4286V53.5624H80.8571V122H121.286V53.5624H161.714V122H202.143V53.5624H242.571V122H252.679C269.419 122 283 132.218 283 144.812V182.833ZM283 243.667H0V198.042C27.3878 198.042 29.5425 182.833 47.2193 182.833C64.8759 182.833 66.9617 198.042 94.4386 198.042C121.502 198.042 124.265 182.833 141.5 182.833C159.281 182.833 161.21 198.042 188.719 198.042C216.108 198.042 218.262 182.833 235.939 182.833C253.303 182.833 255.68 198.042 283 198.042V243.667ZM60.6429 45.9583C49.4302 45.9583 40.4286 39.1858 40.4286 30.7499C40.4286 16.0168 60.6429 19.8189 60.6429 0.333252C68.2232 0.333252 80.8571 14.3534 80.8571 26.9478C80.8571 39.5422 71.8555 45.9583 60.6429 45.9583ZM141.5 45.9583C130.287 45.9583 121.286 39.1858 121.286 30.7499C121.286 16.0168 141.5 19.8189 141.5 0.333252C149.08 0.333252 161.714 14.3534 161.714 26.9478C161.714 39.5422 152.713 45.9583 141.5 45.9583ZM222.357 45.9583C211.145 45.9583 202.143 39.1858 202.143 30.7499C202.143 16.0168 222.357 19.8189 222.357 0.333252C229.937 0.333252 242.571 14.3534 242.571 26.9478C242.571 39.5422 233.57 45.9583 222.357 45.9583Z"/>
    </symbol>
    <symbol id="street" viewBox="0 0 283 244" xmlns="http://www.w3.org/2000/svg">
        <path d="M233.475 213.583H49.525C45.6337 213.583 42.45 217.005 42.45 221.187V236.396C42.45 240.578 45.6337 244 49.525 244H233.475C237.366 244 240.55 240.578 240.55 236.396V221.187C240.55 217.005 237.366 213.583 233.475 213.583ZM261.775 61.4998C250.057 61.4998 240.55 71.7179 240.55 84.3123C240.55 87.6867 241.258 90.8234 242.496 93.7225L210.481 114.349C203.672 118.721 194.872 116.25 190.937 108.836L154.898 41.0636C159.63 36.8813 162.725 30.6079 162.725 23.479C162.725 10.8846 153.218 0.666504 141.5 0.666504C129.782 0.666504 120.275 10.8846 120.275 23.479C120.275 30.6079 123.37 36.8813 128.102 41.0636L92.0634 108.836C88.128 116.25 79.2842 118.721 72.5187 114.349L40.5486 93.7225C41.7425 90.8709 42.4942 87.6867 42.4942 84.3123C42.4942 71.7179 32.9872 61.4998 21.2692 61.4998C9.55125 61.4998 0 71.7179 0 84.3123C0 96.9067 9.50703 107.125 21.225 107.125C22.3747 107.125 23.5244 106.935 24.6298 106.745L56.6 198.375H226.4L258.37 106.745C259.476 106.935 260.625 107.125 261.775 107.125C273.493 107.125 283 96.9067 283 84.3123C283 71.7179 273.493 61.4998 261.775 61.4998Z"/>
    </symbol>
    <symbol id="vk" xmlns="http://www.w3.org/2000/svg" viewBox="0 0 363.301 363.301">
        <path d="M347.506,240.442c-7.91-9.495-16.899-18.005-25.592-26.235c-3.091-2.927-6.287-5.953-9.368-8.962
	c-8.845-8.648-9.167-11.897-2.164-21.72c4.845-6.771,9.982-13.551,14.95-20.108c4.506-5.949,9.166-12.101,13.632-18.273l0.917-1.269
	c8.536-11.811,17.364-24.024,22.062-38.757c1.22-3.887,2.501-9.607-0.428-14.39c-2.927-4.779-8.605-6.237-12.622-6.918
	c-1.987-0.337-3.96-0.383-5.791-0.383l-55.901-0.04l-0.462-0.004c-8.452,0-14.148,3.983-17.412,12.178
	c-3.116,7.83-6.539,16.168-10.445,24.096c-7.773,15.787-17.645,33.97-31.93,49.135l-0.604,0.645
	c-1.687,1.813-3.598,3.866-4.995,3.866c-0.214,0-0.447-0.041-0.711-0.124c-2.959-1.153-4.945-8.316-4.855-11.648
	c0.001-0.046,0.002-0.092,0.002-0.138l-0.039-64.61c0-0.224-0.016-0.446-0.045-0.668c-1.422-10.503-4.572-17.041-16.474-19.372
	c-0.316-0.063-0.639-0.094-0.961-0.094h-58.126c-9.47,0-14.688,3.849-19.593,9.61c-1.324,1.54-4.08,4.746-2.714,8.635
	c1.386,3.947,5.885,4.791,7.35,5.065c7.272,1.384,11.371,5.832,12.532,13.604c2.027,13.496,2.276,27.901,0.784,45.334
	c-0.416,4.845-1.239,8.587-2.595,11.784c-0.315,0.746-1.432,3.181-2.571,3.182c-0.362,0-1.409-0.142-3.316-1.456
	c-4.509-3.089-7.808-7.497-11.654-12.942c-13.084-18.491-24.065-38.861-33.575-62.288c-3.527-8.624-10.114-13.452-18.556-13.594
	c-9.276-0.141-17.686-0.209-25.707-0.209c-8.764,0-16.889,0.081-24.823,0.246C8.914,83.74,4.216,85.776,1.744,89.676
	c-2.476,3.903-2.315,9.03,0.479,15.236c22.366,49.723,42.645,85.876,65.755,117.228c16.193,21.938,32.435,37.123,51.109,47.784
	c19.674,11.255,41.722,16.727,67.402,16.727c2.911,0,5.921-0.071,8.956-0.213c14.922-0.727,20.458-6.128,21.158-20.657
	c0.333-7.425,1.145-15.212,4.795-21.853c2.304-4.184,4.452-4.184,5.158-4.184c1.36,0,3.046,0.626,4.857,1.799
	c3.248,2.12,6.033,4.96,8.316,7.441c2.149,2.357,4.274,4.738,6.401,7.12c4.59,5.141,9.336,10.456,14.294,15.497
	c10.852,11.041,22.807,15.897,36.538,14.843h51.252c0.109,0,0.219-0.004,0.328-0.011c5.107-0.337,9.53-3.17,12.135-7.772
	c3.227-5.701,3.162-12.974-0.174-19.46C356.718,251.867,351.808,245.601,347.506,240.442z"/>
    </symbol>
    <symbol id="tg" viewBox="0 0 24 24" xmlns="http://www.w3.org/2000/svg">
        <path d="M22.26465,2.42773a2.04837,2.04837,0,0,0-2.07813-.32421L2.26562,9.33887a2.043,2.043,0,0,0,.1045,3.81836l3.625,1.26074,2.0205,6.68164A.998.998,0,0,0,8.134,21.352c.00775.012.01868.02093.02692.03259a.98844.98844,0,0,0,.21143.21576c.02307.01758.04516.03406.06982.04968a.98592.98592,0,0,0,.31073.13611l.01184.001.00671.00287a1.02183,1.02183,0,0,0,.20215.02051c.00653,0,.01233-.00312.0188-.00324a.99255.99255,0,0,0,.30109-.05231c.02258-.00769.04193-.02056.06384-.02984a.9931.9931,0,0,0,.20429-.11456,250.75993,250.75993,0,0,1,.15222-.12818L12.416,18.499l4.03027,3.12207a2.02322,2.02322,0,0,0,1.24121.42676A2.05413,2.05413,0,0,0,19.69531,20.415L22.958,4.39844A2.02966,2.02966,0,0,0,22.26465,2.42773ZM9.37012,14.73633a.99357.99357,0,0,0-.27246.50586l-.30951,1.504-.78406-2.59307,4.06525-2.11695ZM17.67188,20.04l-4.7627-3.68945a1.00134,1.00134,0,0,0-1.35352.11914l-.86541.9552.30584-1.48645,7.083-7.083a.99975.99975,0,0,0-1.16894-1.59375L6.74487,12.55432,3.02051,11.19141,20.999,3.999Z"/>
    </symbol>
    <symbol id="inst" viewBox="4 4 24 24" xmlns="http://www.w3.org/2000/svg">
        <path d="M20.445 5h-8.891A6.559 6.559 0 0 0 5 11.554v8.891A6.559 6.559 0 0 0 11.554 27h8.891a6.56 6.56 0 0 0 6.554-6.555v-8.891A6.557 6.557 0 0 0 20.445 5zm4.342 15.445a4.343 4.343 0 0 1-4.342 4.342h-8.891a4.341 4.341 0 0 1-4.341-4.342v-8.891a4.34 4.34 0 0 1 4.341-4.341h8.891a4.342 4.342 0 0 1 4.341 4.341l.001 8.891z"/>
        <path d="M16 10.312c-3.138 0-5.688 2.551-5.688 5.688s2.551 5.688 5.688 5.688 5.688-2.551 5.688-5.688-2.55-5.688-5.688-5.688zm0 9.163a3.475 3.475 0 1 1-.001-6.95 3.475 3.475 0 0 1 .001 6.95zM21.7 8.991a1.363 1.363 0 1 1-1.364 1.364c0-.752.51-1.364 1.364-1.364z"/>
    </symbol>

</svg>
