<svg width="283" height="244" viewBox="0 0 283 244" fill="none" xmlns="http://www.w3.org/2000/svg">
<path d="M283 182.833C265.3 182.833 263.253 167.625 235.939 167.625C208.504 167.625 206.359 182.833 188.719 182.833C171.224 182.833 168.85 167.625 141.5 167.625C114.437 167.625 111.673 182.833 94.4386 182.833C76.6576 182.833 74.7284 167.625 47.2193 167.625C19.7108 167.625 17.7488 182.833 0 182.833V144.812C0 132.218 13.5815 122 30.3214 122H40.4286V53.5624H80.8571V122H121.286V53.5624H161.714V122H202.143V53.5624H242.571V122H252.679C269.419 122 283 132.218 283 144.812V182.833ZM283 243.667H0V198.042C27.3878 198.042 29.5425 182.833 47.2193 182.833C64.8759 182.833 66.9617 198.042 94.4386 198.042C121.502 198.042 124.265 182.833 141.5 182.833C159.281 182.833 161.21 198.042 188.719 198.042C216.108 198.042 218.262 182.833 235.939 182.833C253.303 182.833 255.68 198.042 283 198.042V243.667ZM60.6429 45.9583C49.4302 45.9583 40.4286 39.1858 40.4286 30.7499C40.4286 16.0168 60.6429 19.8189 60.6429 0.333252C68.2232 0.333252 80.8571 14.3534 80.8571 26.9478C80.8571 39.5422 71.8555 45.9583 60.6429 45.9583ZM141.5 45.9583C130.287 45.9583 121.286 39.1858 121.286 30.7499C121.286 16.0168 141.5 19.8189 141.5 0.333252C149.08 0.333252 161.714 14.3534 161.714 26.9478C161.714 39.5422 152.713 45.9583 141.5 45.9583ZM222.357 45.9583C211.145 45.9583 202.143 39.1858 202.143 30.7499C202.143 16.0168 222.357 19.8189 222.357 0.333252C229.937 0.333252 242.571 14.3534 242.571 26.9478C242.571 39.5422 233.57 45.9583 222.357 45.9583Z" fill="black"/>
</svg>
