<svg viewBox="0 0 283 244" fill="black" xmlns="http://www.w3.org/2000/svg">
<path d="M137.748 63.127L47.1704 145.614V234.642C47.1704 236.947 47.9986 239.158 49.4727 240.788C50.9468 242.418 52.9462 243.333 55.0309 243.333L110.084 243.176C112.162 243.164 114.151 242.244 115.617 240.615C117.082 238.986 117.905 236.782 117.905 234.484V182.493C117.905 180.188 118.733 177.977 120.207 176.347C121.682 174.717 123.681 173.802 125.766 173.802H157.208C159.292 173.802 161.292 174.717 162.766 176.347C164.24 177.977 165.068 180.188 165.068 182.493V234.446C165.065 235.59 165.266 236.723 165.659 237.781C166.053 238.838 166.632 239.8 167.362 240.61C168.092 241.42 168.96 242.062 169.915 242.501C170.87 242.939 171.894 243.165 172.929 243.165L227.962 243.333C230.047 243.333 232.046 242.418 233.52 240.788C234.994 239.158 235.823 236.947 235.823 234.642V145.555L145.265 63.127C144.2 62.1782 142.874 61.6608 141.506 61.6608C140.139 61.6608 138.813 62.1782 137.748 63.127ZM280.824 119.192L239.753 81.7593V6.51858C239.753 4.78975 239.132 3.13172 238.026 1.90925C236.92 0.686779 235.421 0 233.857 0H206.346C204.782 0 203.283 0.686779 202.177 1.90925C201.071 3.13172 200.45 4.78975 200.45 6.51858V45.9614L156.466 5.94821C152.245 2.10756 146.948 0.00767751 141.482 0.00767751C136.015 0.00767751 130.719 2.10756 126.498 5.94821L2.13953 119.192C1.54256 119.738 1.04866 120.408 0.686055 121.165C0.323449 121.922 0.0992426 122.75 0.026245 123.602C-0.0467526 124.455 0.0328896 125.315 0.260621 126.134C0.488352 126.952 0.85971 127.713 1.35347 128.373L13.8812 145.212C14.3736 145.874 14.9793 146.423 15.6635 146.825C16.3478 147.228 17.0972 147.478 17.8688 147.56C18.6405 147.643 19.4193 147.556 20.1605 147.305C20.9018 147.054 21.591 146.644 22.1887 146.098L137.748 40.8552C138.813 39.9064 140.139 39.3889 141.506 39.3889C142.874 39.3889 144.2 39.9064 145.265 40.8552L260.829 146.098C261.425 146.644 262.114 147.054 262.854 147.306C263.594 147.558 264.372 147.646 265.143 147.565C265.914 147.485 266.663 147.237 267.347 146.836C268.032 146.435 268.638 145.889 269.131 145.229L281.659 128.389C282.152 127.725 282.522 126.961 282.747 126.139C282.972 125.316 283.048 124.453 282.971 123.599C282.893 122.744 282.663 121.915 282.295 121.159C281.927 120.402 281.427 119.734 280.824 119.192Z"/>
</svg>
