<svg width="283" height="244" viewBox="0 0 283 244" fill="none" xmlns="http://www.w3.org/2000/svg">
<rect width="283" height="243.333" transform="translate(0 0.666504)" fill="#D9D9D9"/>
<path d="M233.475 213.583H49.525C45.6337 213.583 42.45 217.005 42.45 221.187V236.396C42.45 240.578 45.6337 244 49.525 244H233.475C237.366 244 240.55 240.578 240.55 236.396V221.187C240.55 217.005 237.366 213.583 233.475 213.583ZM261.775 61.4998C250.057 61.4998 240.55 71.7179 240.55 84.3123C240.55 87.6867 241.258 90.8234 242.496 93.7225L210.481 114.349C203.672 118.721 194.872 116.25 190.937 108.836L154.898 41.0636C159.63 36.8813 162.725 30.6079 162.725 23.479C162.725 10.8846 153.218 0.666504 141.5 0.666504C129.782 0.666504 120.275 10.8846 120.275 23.479C120.275 30.6079 123.37 36.8813 128.102 41.0636L92.0634 108.836C88.128 116.25 79.2842 118.721 72.5187 114.349L40.5486 93.7225C41.7425 90.8709 42.4942 87.6867 42.4942 84.3123C42.4942 71.7179 32.9872 61.4998 21.2692 61.4998C9.55125 61.4998 0 71.7179 0 84.3123C0 96.9067 9.50703 107.125 21.225 107.125C22.3747 107.125 23.5244 106.935 24.6298 106.745L56.6 198.375H226.4L258.37 106.745C259.476 106.935 260.625 107.125 261.775 107.125C273.493 107.125 283 96.9067 283 84.3123C283 71.7179 273.493 61.4998 261.775 61.4998Z" fill="black"/>
</svg>
